<?xml version="1.0" encoding="UTF-8" standalone="no"?>
<!DOCTYPE svg PUBLIC "-//W3C//DTD SVG 1.1//EN"
 "http://www.w3.org/Graphics/SVG/1.1/DTD/svg11.dtd">
<!-- Generated by graphviz version 2.43.0 (0)
 -->
<!-- Title: G Pages: 1 -->
<svg width="282pt" height="526pt"
 viewBox="0.00 0.00 281.54 525.69" xmlns="http://www.w3.org/2000/svg" xmlns:xlink="http://www.w3.org/1999/xlink">
<g id="graph0" class="graph" transform="scale(1 1) rotate(0) translate(4 521.69)">
<title>G</title><style>.edge>path:hover{stroke-width:8}</style>
<polygon fill="white" stroke="transparent" points="-4,4 -4,-521.69 277.54,-521.69 277.54,4 -4,4"/>
<!-- conntextual___main__ -->
<g id="node1" class="node">
<title>conntextual___main__</title><style>.edge>path:hover{stroke-width:8}</style>
<ellipse fill="#ac4949" stroke="black" cx="95.45" cy="-21.21" rx="54.39" ry="21.43"/>
<text text-anchor="middle" x="95.45" y="-24.21" font-family="Helvetica,sans-Serif" font-size="10.00" fill="#ffffff">conntextual.</text>
<text text-anchor="middle" x="95.45" y="-13.21" font-family="Helvetica,sans-Serif" font-size="10.00" fill="#ffffff">__main__</text>
</g>
<!-- conntextual_app -->
<g id="node2" class="node">
<title>conntextual_app</title><style>.edge>path:hover{stroke-width:8}</style>
<ellipse fill="#a13535" stroke="black" cx="95.45" cy="-178.07" rx="54.39" ry="21.43"/>
<text text-anchor="middle" x="95.45" y="-181.07" font-family="Helvetica,sans-Serif" font-size="10.00" fill="#ffffff">conntextual.</text>
<text text-anchor="middle" x="95.45" y="-170.07" font-family="Helvetica,sans-Serif" font-size="10.00" fill="#ffffff">app</text>
</g>
<!-- conntextual_entry -->
<g id="node5" class="node">
<title>conntextual_entry</title><style>.edge>path:hover{stroke-width:8}</style>
<ellipse fill="#b83d3d" stroke="black" cx="95.45" cy="-99.64" rx="54.39" ry="21.43"/>
<text text-anchor="middle" x="95.45" y="-102.64" font-family="Helvetica,sans-Serif" font-size="10.00" fill="#ffffff">conntextual.</text>
<text text-anchor="middle" x="95.45" y="-91.64" font-family="Helvetica,sans-Serif" font-size="10.00" fill="#ffffff">entry</text>
</g>
<!-- conntextual_app&#45;&gt;conntextual_entry -->
<g id="edge1" class="edge">
<title>conntextual_app&#45;&gt;conntextual_entry</title><style>.edge>path:hover{stroke-width:8}</style>
<path fill="none" stroke="black" d="M95.45,-156.59C95.45,-148.73 95.45,-139.58 95.45,-130.99"/>
<polygon fill="#a13535" stroke="black" points="98.95,-130.91 95.45,-120.91 91.95,-130.91 98.95,-130.91"/>
</g>
<!-- conntextual_commands -->
<g id="node3" class="node">
<title>conntextual_commands</title><style>.edge>path:hover{stroke-width:8}</style>
<ellipse fill="#c24747" stroke="black" cx="54.45" cy="-256.49" rx="54.39" ry="21.43"/>
<text text-anchor="middle" x="54.45" y="-259.49" font-family="Helvetica,sans-Serif" font-size="10.00" fill="#ffffff">conntextual.</text>
<text text-anchor="middle" x="54.45" y="-248.49" font-family="Helvetica,sans-Serif" font-size="10.00" fill="#ffffff">commands</text>
</g>
<!-- conntextual_commands&#45;&gt;conntextual_app -->
<g id="edge2" class="edge">
<title>conntextual_commands&#45;&gt;conntextual_app</title><style>.edge>path:hover{stroke-width:8}</style>
<path fill="none" stroke="black" d="M65.22,-235.41C69.74,-226.99 75.08,-217.03 80.01,-207.85"/>
<polygon fill="#c24747" stroke="black" points="83.1,-209.48 84.75,-199.01 76.94,-206.17 83.1,-209.48"/>
</g>
<!-- conntextual_commands_all -->
<g id="node4" class="node">
<title>conntextual_commands_all</title><style>.edge>path:hover{stroke-width:8}</style>
<ellipse fill="#b83d3d" stroke="black" cx="136.45" cy="-342.7" rx="54.39" ry="28.98"/>
<text text-anchor="middle" x="136.45" y="-351.2" font-family="Helvetica,sans-Serif" font-size="10.00" fill="#ffffff">conntextual.</text>
<text text-anchor="middle" x="136.45" y="-340.2" font-family="Helvetica,sans-Serif" font-size="10.00" fill="#ffffff">commands.</text>
<text text-anchor="middle" x="136.45" y="-329.2" font-family="Helvetica,sans-Serif" font-size="10.00" fill="#ffffff">all</text>
</g>
<!-- conntextual_commands_all&#45;&gt;conntextual_app -->
<g id="edge3" class="edge">
<title>conntextual_commands_all&#45;&gt;conntextual_app</title><style>.edge>path:hover{stroke-width:8}</style>
<path fill="none" stroke="black" d="M139.77,-313.61C140.91,-297.04 140.95,-275.81 136.45,-257.49"/>
</g>
<!-- conntextual_entry&#45;&gt;conntextual___main__ -->
<g id="edge4" class="edge">
<title>conntextual_entry&#45;&gt;conntextual___main__</title><style>.edge>path:hover{stroke-width:8}</style>
<path fill="none" stroke="black" d="M95.45,-78.16C95.45,-70.3 95.45,-61.16 95.45,-52.57"/>
<polygon fill="#b83d3d" stroke="black" points="98.95,-52.49 95.45,-42.49 91.95,-52.49 98.95,-52.49"/>
</g>
<!-- vcorelib -->
<g id="node6" class="node">
<title>vcorelib</title><style>.edge>path:hover{stroke-width:8}</style>
<ellipse fill="#47c2c2" stroke="black" cx="128.45" cy="-499.69" rx="32.93" ry="18"/>
<text text-anchor="middle" x="128.45" y="-497.19" font-family="Helvetica,sans-Serif" font-size="10.00" fill="#000000">vcorelib</text>
</g>
<!-- vcorelib&#45;&gt;conntextual_app -->
<g id="edge5" class="edge">
<title>vcorelib&#45;&gt;conntextual_app</title><style>.edge>path:hover{stroke-width:8}</style>
<path fill="none" stroke="black" d="M133.56,-481.75C138.27,-463.4 143.55,-433.41 136.45,-408.69"/>
<path fill="none" stroke="black" d="M136.45,-407.69C126.3,-377.08 89.63,-399.58 73.45,-371.69 60.51,-349.4 62.41,-336.99 73.45,-313.71 89.52,-279.79 145.4,-293.93 136.45,-257.49"/>
<path fill="none" stroke="black" d="M136.45,-255.49C131.8,-238.58 122.9,-221.23 114.57,-207.35"/>
<polygon fill="#47c2c2" stroke="black" points="117.48,-205.41 109.23,-198.77 111.54,-209.11 117.48,-205.41"/>
</g>
<!-- vcorelib&#45;&gt;conntextual_commands_all -->
<g id="edge6" class="edge">
<title>vcorelib&#45;&gt;conntextual_commands_all</title><style>.edge>path:hover{stroke-width:8}</style>
<path fill="none" stroke="black" d="M136.45,-407.69C134.11,-399.57 133.17,-390.62 132.99,-382.06"/>
<polygon fill="#47c2c2" stroke="black" points="136.49,-381.93 133.11,-371.88 129.49,-381.84 136.49,-381.93"/>
</g>
<!-- vcorelib_args -->
<g id="node7" class="node">
<title>vcorelib_args</title><style>.edge>path:hover{stroke-width:8}</style>
<ellipse fill="#47c2c2" stroke="black" cx="226.45" cy="-499.69" rx="47.19" ry="18"/>
<text text-anchor="middle" x="226.45" y="-497.19" font-family="Helvetica,sans-Serif" font-size="10.00" fill="#000000">vcorelib.args</text>
</g>
<!-- vcorelib_args&#45;&gt;conntextual_app -->
<g id="edge7" class="edge">
<title>vcorelib_args&#45;&gt;conntextual_app</title><style>.edge>path:hover{stroke-width:8}</style>
<path fill="none" stroke="black" d="M218.45,-407.69C203.43,-367.81 220.65,-350.67 199.45,-313.71 180.77,-281.16 146.38,-293.68 136.45,-257.49"/>
</g>
<!-- vcorelib_args&#45;&gt;conntextual_commands_all -->
<g id="edge8" class="edge">
<title>vcorelib_args&#45;&gt;conntextual_commands_all</title><style>.edge>path:hover{stroke-width:8}</style>
<path fill="none" stroke="black" d="M226.84,-481.42C226.82,-463.03 225.51,-433.26 218.45,-408.69"/>
<path fill="none" stroke="black" d="M218.45,-407.69C212.28,-391.3 199.02,-378.15 184.92,-368.13"/>
<polygon fill="#47c2c2" stroke="black" points="186.84,-365.2 176.57,-362.59 182.97,-371.03 186.84,-365.2"/>
</g>
</g>
</svg>
